<?xml version="1.0" encoding="UTF-8" standalone="no"?>
<svg xmlns:xlink="http://www.w3.org/1999/xlink" height="86.1px" width="67.5px" xmlns="http://www.w3.org/2000/svg">
  <g transform="matrix(1.0, 0.0, 0.0, 1.0, 33.75, 27.2)">
    <use height="22.0" id="z" transform="matrix(1.0, 0.0, 0.0, 1.0, -8.0, -3.2)" width="16.0" xlink:href="#sprite0"/>
    <use height="24.1" id="a" transform="matrix(1.0, 0.0, 0.0, 1.0, -11.7, -6.55)" width="23.45" xlink:href="#sprite1"/>
  </g>
  <defs>
    <g id="sprite0" transform="matrix(1.0, 0.0, 0.0, 1.0, 8.0, 11.0)">
      <use height="20.0" transform="matrix(0.613, 0.0, 0.0, 1.1, -7.9999, -11.0001)" width="26.1" xlink:href="#shape0"/>
    </g>
    <g id="shape0" transform="matrix(1.0, 0.0, 0.0, 1.0, 13.05, 10.0)">
      <path d="M13.05 -10.0 L13.05 10.0 -13.05 10.0 -13.05 -10.0 13.05 -10.0" fill="#ff0000" fill-rule="evenodd" stroke="none"/>
    </g>
    <g id="sprite1" transform="matrix(1.0, 0.0, 0.0, 1.0, 11.7, 2.65)">
      <use height="24.1" transform="matrix(1.0, 0.0, 0.0, 1.0, -11.7, -2.65)" width="23.45" xlink:href="#sprite2"/>
    </g>
    <g id="sprite2" transform="matrix(1.0, 0.0, 0.0, 1.0, 11.7, 2.65)">
      <use height="22.45" transform="matrix(0.9962, -0.0872, 0.0872, 0.9962, -10.0647, -0.9261)" width="19.95" xlink:href="#sprite3"/>
    </g>
    <g id="sprite3" transform="matrix(1.0, 0.0, 0.0, 1.0, 9.95, 1.75)">
      <use height="22.45" transform="matrix(1.0, 0.0, 0.0, 1.0, -9.95, -1.75)" width="19.95" xlink:href="#shape1"/>
      <use height="2.35" transform="matrix(1.0, 0.0, 0.0, 1.0, -1.15, 13.2)" width="2.3" xlink:href="#sprite4"/>
      <use height="2.35" transform="matrix(0.9973, -0.0703, 0.0703, 0.9973, 1.9222, 13.084)" width="2.3" xlink:href="#sprite4"/>
      <use height="2.35" transform="matrix(0.9659, -0.2588, 0.2588, 0.9659, 4.6915, 12.7868)" width="2.3" xlink:href="#sprite4"/>
      <use height="2.35" transform="matrix(0.9871, 0.1571, -0.1571, 0.9871, -4.0544, 12.8342)" width="2.3" xlink:href="#sprite4"/>
      <use height="2.35" transform="matrix(0.9598, 0.2774, -0.2774, 0.9598, -6.9347, 12.1272)" width="2.3" xlink:href="#sprite4"/>
    </g>
    <g id="shape1" transform="matrix(1.0, 0.0, 0.0, 1.0, 9.95, 1.75)">
      <path d="M-0.35 -0.35 L-0.65 -0.45 -0.75 -0.75 -0.65 -1.1 -0.35 -1.2 -0.05 -1.1 0.05 -0.75 -0.05 -0.45 -0.35 -0.35" fill="#ffffff" fill-rule="evenodd" stroke="none"/>
      <path d="M1.0 -1.35 Q1.4 -0.95 1.4 -0.35 1.4 0.25 1.0 0.65 0.6 1.05 0.0 1.05 -0.6 1.05 -1.0 0.65 -1.4 0.25 -1.4 -0.35 -1.4 -0.95 -1.0 -1.35 -0.6 -1.75 0.0 -1.75 0.6 -1.75 1.0 -1.35 M-0.35 -0.35 L-0.05 -0.45 0.05 -0.75 -0.05 -1.1 -0.35 -1.2 -0.65 -1.1 -0.75 -0.75 -0.65 -0.45 -0.35 -0.35" fill="#a5c0d3" fill-rule="evenodd" stroke="none"/>
      <path d="M9.8 18.75 Q7.5 20.3 0.0 20.7 -7.45 20.3 -9.75 18.75 -10.35 17.05 -8.95 15.4 -7.2 13.2 -6.25 6.7 -5.4 0.95 0.0 0.75 5.4 0.95 6.25 6.7 7.2 13.2 8.95 15.4 10.4 17.05 9.8 18.75" fill="url(#gradient0)" fill-rule="evenodd" stroke="none"/>
      <path d="M9.3 15.85 Q10.3 17.3 9.8 18.75 7.5 20.3 0.0 20.7 -7.45 20.3 -9.75 18.75 -10.3 17.3 -9.25 15.85 -0.1 19.0 9.3 15.85" fill="url(#gradient1)" fill-rule="evenodd" stroke="none"/>
      <path d="M8.45 14.65 Q7.75 13.45 7.2 11.5 M-7.2 11.5 Q-7.75 13.45 -8.45 14.65" fill="none" stroke="#71889d" stroke-linecap="round" stroke-linejoin="round" stroke-width="0.05"/>
      <path d="M7.2 11.5 Q0.0 13.7 -7.2 11.5 M-8.45 14.65 Q0.1 17.25 8.45 14.65 Z" fill="none" stroke="#ffffff" stroke-linecap="round" stroke-linejoin="round" stroke-width="0.05"/>
    </g>
    <radialGradient cx="0" cy="0" gradientTransform="matrix(0.0088, 0.0, 0.0, 0.0088, -0.75, 5.9)" gradientUnits="userSpaceOnUse" id="gradient0" r="819.2" spreadMethod="pad">
      <stop offset="0.3215686274509804" stop-color="#ffffff"/>
      <stop offset="1.0" stop-color="#bed0e0"/>
    </radialGradient>
    <radialGradient cx="0" cy="0" gradientTransform="matrix(0.014, 0.0, 0.0, 0.0059, -2.8, 16.3)" gradientUnits="userSpaceOnUse" id="gradient1" r="819.2" spreadMethod="pad">
      <stop offset="0.0" stop-color="#ffffff"/>
      <stop offset="1.0" stop-color="#bed0e0" stop-opacity="0.0"/>
    </radialGradient>
    <g id="sprite4" transform="matrix(1.0, 0.0, 0.0, 1.0, 1.15, 1.15)">
      <use height="2.35" transform="matrix(1.0, 0.0, 0.0, 1.0, -1.15, -1.15)" width="2.3" xlink:href="#shape2"/>
    </g>
    <g id="shape2" transform="matrix(1.0, 0.0, 0.0, 1.0, 1.15, 1.15)">
      <path d="M0.0 1.2 L-1.15 0.0 0.0 -1.15 1.15 0.0 0.0 1.2" fill="#ffffff" fill-rule="evenodd" stroke="none"/>
    </g>
  </defs>
</svg>
