<?xml version="1.0" encoding="UTF-8" standalone="no"?>
<svg xmlns:xlink="http://www.w3.org/1999/xlink" height="47.3px" width="43.45px" xmlns="http://www.w3.org/2000/svg">
  <g transform="matrix(1.0, 0.0, 0.0, 1.0, 18.95, 44.65)">
    <use height="8.3" transform="matrix(1.0, 0.0, 0.0, 1.0, -14.6, -11.9)" width="8.3" xlink:href="#sprite0"/>
    <use height="15.3" transform="matrix(0.0574, -0.9982, 0.9982, 0.0574, -9.4886, -1.4031)" width="21.45" xlink:href="#sprite1"/>
    <use height="13.85" transform="matrix(-0.0266, -0.9975, 0.9975, -0.0266, -7.1718, 0.5465)" width="4.85" xlink:href="#sprite2"/>
    <use height="12.0" transform="matrix(1.2353, 0.0, 0.0, 0.8333, -9.0, -11.5)" width="8.5" xlink:href="#sprite3"/>
    <use height="9.5" transform="matrix(0.7646, -0.6436, 0.6436, 0.7646, -2.0748, -15.0388)" width="5.15" xlink:href="#sprite4"/>
    <use height="25.75" transform="matrix(1.0, 0.0, 0.0, 1.0, -18.95, -44.65)" width="27.2" xlink:href="#sprite5"/>
  </g>
  <defs>
    <g id="sprite0" transform="matrix(1.0, 0.0, 0.0, 1.0, 4.15, 4.15)">
      <use height="8.3" transform="matrix(1.0, 0.0, 0.0, 1.0, -4.15, -4.15)" width="8.3" xlink:href="#shape0"/>
    </g>
    <g id="shape0" transform="matrix(1.0, 0.0, 0.0, 1.0, 4.15, 4.15)">
      <path d="M2.9 -2.95 Q4.15 -1.7 4.15 0.0 4.15 1.7 2.9 2.9 1.7 4.15 0.0 4.15 -1.7 4.15 -2.95 2.9 -4.15 1.7 -4.15 0.0 -4.15 -1.7 -2.95 -2.95 -1.7 -4.15 0.0 -4.15 1.7 -4.15 2.9 -2.95" fill="url(#gradient0)" fill-rule="evenodd" stroke="none"/>
    </g>
    <radialGradient cx="0" cy="0" gradientTransform="matrix(0.0054, 0.0, 0.0, 0.0054, 0.0, -1.4)" gradientUnits="userSpaceOnUse" id="gradient0" r="819.2" spreadMethod="pad">
      <stop offset="0.3215686274509804" stop-color="#ffffff"/>
      <stop offset="1.0" stop-color="#bed0e0"/>
    </radialGradient>
    <g id="sprite1" transform="matrix(1.0, 0.0, 0.0, 1.0, 9.65, 8.45)">
      <use height="15.3" transform="matrix(1.0, 0.0, 0.0, 1.0, -9.65, -8.45)" width="21.45" xlink:href="#shape1"/>
    </g>
    <g id="shape1" transform="matrix(1.0, 0.0, 0.0, 1.0, 9.65, 8.45)">
      <path d="M9.65 -3.8 Q11.8 -3.2 11.8 -1.15 11.8 0.9 8.75 3.0 5.7 5.05 1.6 6.35 -2.5 7.65 -5.65 5.55 -8.8 3.45 -9.45 0.1 -10.2 -3.25 -8.05 -5.95 -5.9 -8.7 -2.5 -8.45 0.85 -8.2 2.5 -6.75 4.15 -5.3 5.85 -4.85 L9.65 -3.8" fill="url(#gradient1)" fill-rule="evenodd" stroke="none"/>
    </g>
    <radialGradient cx="0" cy="0" gradientTransform="matrix(0.0124, 0.0, 0.0, 0.0101, 1.2, -1.4)" gradientUnits="userSpaceOnUse" id="gradient1" r="819.2" spreadMethod="pad">
      <stop offset="0.3215686274509804" stop-color="#ffffff"/>
      <stop offset="1.0" stop-color="#bed0e0"/>
    </radialGradient>
    <g id="sprite2" transform="matrix(1.0, 0.0, 0.0, 1.0, 2.75, 2.0)">
      <use height="13.85" transform="matrix(1.0, 0.0, 0.0, 1.0, -2.75, -2.0)" width="4.85" xlink:href="#shape2"/>
    </g>
    <g id="shape2" transform="matrix(1.0, 0.0, 0.0, 1.0, 2.75, 2.0)">
      <path d="M2.1 -0.05 L2.05 4.65 Q2.0 7.55 1.1 9.25 0.2 10.9 -0.9 11.65 -2.05 12.35 -2.45 10.85 -2.9 9.35 -2.65 4.85 -2.45 0.35 -2.0 -0.9 -1.6 -2.15 0.25 -2.0 2.1 -1.85 2.1 -0.05" fill="url(#gradient2)" fill-rule="evenodd" stroke="none"/>
    </g>
    <radialGradient cx="0" cy="0" gradientTransform="matrix(0.0047, 0.0, 0.0, 0.012, 1.05, 4.2)" gradientUnits="userSpaceOnUse" id="gradient2" r="819.2" spreadMethod="pad">
      <stop offset="0.3215686274509804" stop-color="#ffffff"/>
      <stop offset="1.0" stop-color="#bed0e0"/>
    </radialGradient>
    <g id="sprite3" transform="matrix(1.0, 0.0, 0.0, 1.0, 4.25, 6.0)">
      <use height="12.0" transform="matrix(1.0, 0.0, 0.0, 1.0, -4.25, -6.0)" width="8.5" xlink:href="#shape3"/>
    </g>
    <g id="shape3" transform="matrix(1.0, 0.0, 0.0, 1.0, 4.25, 6.0)">
      <path d="M3.0 -4.25 Q4.2 -2.5 4.25 0.0 4.2 2.5 3.0 4.25 1.75 6.0 0.0 6.0 -1.8 6.0 -3.0 4.25 -4.25 2.5 -4.25 0.0 -4.25 -2.5 -3.0 -4.25 -1.8 -6.0 0.0 -6.0 1.75 -6.0 3.0 -4.25" fill="url(#gradient3)" fill-rule="evenodd" stroke="none"/>
    </g>
    <radialGradient cx="0" cy="0" gradientTransform="matrix(0.0058, 0.0, 0.0, 0.0082, 0.75, -1.95)" gradientUnits="userSpaceOnUse" id="gradient3" r="819.2" spreadMethod="pad">
      <stop offset="0.3215686274509804" stop-color="#ffffff"/>
      <stop offset="1.0" stop-color="#bed0e0"/>
    </radialGradient>
    <g id="sprite4" transform="matrix(1.0, 0.0, 0.0, 1.0, 1.95, 2.15)">
      <use height="9.5" transform="matrix(1.0, 0.0, 0.0, 1.0, -1.95, -2.15)" width="5.15" xlink:href="#shape4"/>
    </g>
    <g id="shape4" transform="matrix(1.0, 0.0, 0.0, 1.0, 1.95, 2.15)">
      <path d="M0.95 -2.05 Q2.65 -1.55 2.85 0.3 L3.2 4.25 Q3.35 6.4 2.3 7.1 1.25 7.75 1.0 6.8 L0.2 5.2 -1.35 2.7 Q-2.4 0.8 -1.6 -0.85 -0.8 -2.55 0.95 -2.05" fill="url(#gradient4)" fill-rule="evenodd" stroke="none"/>
    </g>
    <radialGradient cx="0" cy="0" gradientTransform="matrix(0.0063, 0.0, 0.0, 0.0116, 3.2, 2.1)" gradientUnits="userSpaceOnUse" id="gradient4" r="819.2" spreadMethod="pad">
      <stop offset="0.3215686274509804" stop-color="#ffffff"/>
      <stop offset="1.0" stop-color="#bed0e0"/>
    </radialGradient>
    <g id="sprite5" transform="matrix(1.0, 0.0, 0.0, 1.0, 13.4, 21.55)">
      <use height="11.7" transform="matrix(0.7381, -0.6728, 0.6728, 0.7381, -6.3465, -15.6134)" width="4.3" xlink:href="#sprite6"/>
      <use height="15.8" transform="matrix(1.0, 0.0, 0.0, 1.0, -3.0, -11.6)" width="16.8" xlink:href="#sprite7"/>
      <use height="16.05" transform="matrix(0.5388, -0.8409, 0.8409, 0.5388, -12.4989, -12.8964)" width="5.85" xlink:href="#sprite8"/>
    </g>
    <g id="sprite6" transform="matrix(1.0, 0.0, 0.0, 1.0, 2.25, 11.35)">
      <use height="11.7" transform="matrix(1.0, 0.0, 0.0, 1.0, -2.25, -11.35)" width="4.3" xlink:href="#shape5"/>
    </g>
    <g id="shape5" transform="matrix(1.0, 0.0, 0.0, 1.0, 2.25, 11.35)">
      <path d="M-2.2 -4.9 Q-2.5 -8.5 -0.05 -11.35 2.9 -4.1 1.7 -1.45 0.45 1.2 -0.7 -0.05 -1.9 -1.35 -2.2 -4.9" fill="url(#gradient5)" fill-rule="evenodd" stroke="none"/>
    </g>
    <radialGradient cx="0" cy="0" gradientTransform="matrix(0.0027, 0.0, 0.0, 0.0076, 0.55, -5.85)" gradientUnits="userSpaceOnUse" id="gradient5" r="819.2" spreadMethod="pad">
      <stop offset="0.3215686274509804" stop-color="#ffffff"/>
      <stop offset="1.0" stop-color="#bed0e0"/>
    </radialGradient>
    <g id="sprite7" transform="matrix(1.0, 0.0, 0.0, 1.0, 8.35, 7.85)">
      <use height="15.8" transform="matrix(1.0, 0.0, 0.0, 1.0, -8.35, -7.85)" width="16.8" xlink:href="#shape6"/>
    </g>
    <g id="shape6" transform="matrix(1.0, 0.0, 0.0, 1.0, 8.35, 7.85)">
      <path d="M6.6 -2.5 Q7.0 -0.35 7.75 0.1 8.5 0.6 8.45 2.3 8.4 3.95 5.65 6.2 2.85 8.45 -0.55 7.8 -3.95 7.15 -6.2 4.9 -8.4 2.7 -8.35 -0.4 -8.4 -3.55 -6.2 -5.75 -4.0 -7.9 -0.55 -7.85 2.85 -7.85 4.5 -6.2 6.15 -4.65 6.6 -2.5 M3.45 0.3 Q2.25 -1.75 1.0 -0.6 2.25 -1.75 3.45 0.3" fill="url(#gradient6)" fill-rule="evenodd" stroke="none"/>
      <path d="M1.0 -0.6 Q2.25 -1.75 3.45 0.3" fill="none" stroke="#71889d" stroke-linecap="round" stroke-linejoin="round" stroke-width="0.05"/>
      <path d="M7.05 1.3 Q6.75 0.3 7.85 0.15 8.45 0.65 8.45 2.3 7.45 2.05 7.05 1.3" fill="#71889d" fill-rule="evenodd" stroke="none"/>
    </g>
    <radialGradient cx="0" cy="0" gradientTransform="matrix(0.0093, 0.0, 0.0, 0.0093, -0.35, -2.15)" gradientUnits="userSpaceOnUse" id="gradient6" r="819.2" spreadMethod="pad">
      <stop offset="0.3215686274509804" stop-color="#ffffff"/>
      <stop offset="1.0" stop-color="#bed0e0"/>
    </radialGradient>
    <g id="sprite8" transform="matrix(1.0, 0.0, 0.0, 1.0, 2.8, 14.2)">
      <use height="16.05" transform="matrix(1.0, 0.0, 0.0, 1.0, -2.8, -14.2)" width="5.85" xlink:href="#shape7"/>
    </g>
    <g id="shape7" transform="matrix(1.0, 0.0, 0.0, 1.0, 2.8, 14.2)">
      <path d="M2.55 -0.6 Q0.85 3.05 -0.75 1.3 -2.35 -0.45 -2.75 -5.4 -3.15 -10.35 0.2 -14.2 4.25 -4.3 2.55 -0.6" fill="url(#gradient7)" fill-rule="evenodd" stroke="none"/>
      <path d="M-0.8 -7.1 Q1.2 -1.95 0.85 -0.3 0.45 1.35 -0.45 0.5 -1.3 -0.4 -1.45 -2.4 -1.6 -4.45 -0.8 -7.1" fill="url(#gradient8)" fill-rule="evenodd" stroke="none"/>
    </g>
    <radialGradient cx="0" cy="0" gradientTransform="matrix(0.0038, 0.0, 0.0, 0.0105, 1.05, -6.65)" gradientUnits="userSpaceOnUse" id="gradient7" r="819.2" spreadMethod="pad">
      <stop offset="0.3215686274509804" stop-color="#ffffff"/>
      <stop offset="1.0" stop-color="#bed0e0"/>
    </radialGradient>
    <radialGradient cx="0" cy="0" gradientTransform="matrix(0.0036, -4.0E-4, 0.0011, 0.01, -0.75, -2.7)" gradientUnits="userSpaceOnUse" id="gradient8" r="819.2" spreadMethod="pad">
      <stop offset="0.0" stop-color="#bed0e0"/>
      <stop offset="1.0" stop-color="#596366"/>
    </radialGradient>
  </defs>
</svg>
