<?xml version="1.0" encoding="UTF-8" standalone="no"?>
<svg xmlns:xlink="http://www.w3.org/1999/xlink" height="87.1px" width="37.15px" xmlns="http://www.w3.org/2000/svg">
  <g transform="matrix(1.0, 0.0, 0.0, 1.0, 18.55, 23.6)">
    <use height="17.0" id="z" transform="matrix(1.0, 0.0, 0.0, 1.0, -16.55, -7.0)" width="31.0" xlink:href="#sprite0"/>
    <use height="43.1" transform="matrix(0.9987, 0.0, 0.0, 1.0, -18.5251, -23.6)" width="37.15" xlink:href="#sprite1"/>
  </g>
  <defs>
    <g id="sprite0" transform="matrix(1.0, 0.0, 0.0, 1.0, 16.55, 6.0)">
      <use height="20.0" transform="matrix(1.1877, 0.0, 0.0, 0.85, -16.5501, -6.0001)" width="26.1" xlink:href="#shape0"/>
    </g>
    <g id="shape0" transform="matrix(1.0, 0.0, 0.0, 1.0, 13.05, 10.0)">
      <path d="M13.05 -10.0 L13.05 10.0 -13.05 10.0 -13.05 -10.0 13.05 -10.0" fill="#ff0000" fill-rule="evenodd" stroke="none"/>
    </g>
    <g id="sprite1" transform="matrix(1.0, 0.0, 0.0, 1.0, 18.55, 23.6)">
      <use height="40.1" transform="matrix(0.9987, 0.0, 0.0, 1.0, -18.5251, -20.6)" width="37.15" xlink:href="#sprite2"/>
    </g>
    <g id="sprite2" transform="matrix(1.0, 0.0, 0.0, 1.0, 18.55, 20.6)">
      <use height="20.8" transform="matrix(-0.8387, 0.0, 0.0, 1.0, 12.2, -19.8)" width="11.5" xlink:href="#sprite3"/>
      <use height="13.15" transform="matrix(1.0, 0.0, 0.0, 1.0, -18.55, -4.65)" width="27.45" xlink:href="#sprite4"/>
      <use height="11.65" transform="matrix(1.0, 0.0, 0.0, 1.0, 4.75, -5.75)" width="13.85" xlink:href="#sprite5"/>
      <use height="20.8" transform="matrix(1.0, 0.0, 0.0, 1.0, -7.25, -20.6)" width="11.5" xlink:href="#sprite3"/>
    </g>
    <g id="sprite3" transform="matrix(1.0, 0.0, 0.0, 1.0, 7.75, 19.4)">
      <use height="20.8" transform="matrix(1.0, 0.0, 0.0, 1.0, -7.75, -19.4)" width="11.5" xlink:href="#shape1"/>
    </g>
    <g id="shape1" transform="matrix(1.0, 0.0, 0.0, 1.0, 7.75, 19.4)">
      <path d="M-3.05 -12.95 Q-3.65 -17.85 -1.65 -19.4 -1.1 -14.25 2.05 -9.75 5.2 -5.25 2.45 0.55 0.5 2.15 -2.7 0.65 -7.0 -4.6 -7.75 -8.65 L-6.3 -7.4 Q-7.6 -10.9 -7.2 -12.55 L-5.2 -10.55 Q-6.85 -15.3 -4.65 -17.95 -4.0 -14.75 -3.05 -12.95" fill="url(#gradient0)" fill-rule="evenodd" stroke="none"/>
    </g>
    <radialGradient cx="0" cy="0" gradientTransform="matrix(0.007, -0.0029, 0.0048, 0.0117, -0.65, -7.65)" gradientUnits="userSpaceOnUse" id="gradient0" r="819.2" spreadMethod="pad">
      <stop offset="0.3215686274509804" stop-color="#ffffff"/>
      <stop offset="1.0" stop-color="#bed0e0"/>
    </radialGradient>
    <g id="sprite4" transform="matrix(1.0, 0.0, 0.0, 1.0, 17.45, 6.6)">
      <use height="13.15" transform="matrix(1.0, 0.0, 0.0, 1.0, -17.45, -6.6)" width="27.45" xlink:href="#shape2"/>
    </g>
    <g id="shape2" transform="matrix(1.0, 0.0, 0.0, 1.0, 17.45, 6.6)">
      <path d="M9.75 -2.25 Q10.85 0.6 6.95 4.05 3.05 7.5 -1.35 6.15 -5.8 4.75 -8.2 1.3 -10.6 -2.15 -17.45 0.75 L-16.9 -1.4 -11.95 -2.75 -16.6 -2.1 -15.45 -4.0 -10.7 -4.0 -14.8 -4.7 -12.6 -6.45 Q-7.25 -4.15 -3.35 -5.7 0.5 -7.25 4.6 -6.15 8.65 -5.1 9.75 -2.25" fill="url(#gradient1)" fill-rule="evenodd" stroke="none"/>
    </g>
    <radialGradient cx="0" cy="0" gradientTransform="matrix(0.0115, 0.0, 0.0, 0.0089, 0.9, -2.9)" gradientUnits="userSpaceOnUse" id="gradient1" r="819.2" spreadMethod="pad">
      <stop offset="0.3215686274509804" stop-color="#ffffff"/>
      <stop offset="1.0" stop-color="#bed0e0"/>
    </radialGradient>
    <g id="sprite5" transform="matrix(1.0, 0.0, 0.0, 1.0, 5.85, 5.8)">
      <use height="11.65" transform="matrix(1.0, 0.0, 0.0, 1.0, -5.85, -5.8)" width="13.85" xlink:href="#shape3"/>
    </g>
    <g id="shape3" transform="matrix(1.0, 0.0, 0.0, 1.0, 5.85, 5.8)">
      <path d="M4.15 -4.1 Q5.85 -2.4 5.85 0.05 5.85 2.45 4.15 4.15 2.4 5.85 0.0 5.85 -2.4 5.85 -4.1 4.15 -5.85 2.45 -5.85 0.05 -5.85 -2.4 -4.1 -4.1 -2.4 -5.8 0.0 -5.8 2.4 -5.8 4.15 -4.1" fill="url(#gradient2)" fill-rule="evenodd" stroke="none"/>
      <path d="M8.0 2.5 L4.7 3.5 Q4.2 1.4 5.8 0.2 7.3 0.7 8.0 2.5" fill="#81a7c2" fill-rule="evenodd" stroke="none"/>
      <path d="M1.65 -0.25 Q2.25 0.0 2.5 0.65" fill="none" stroke="#7594aa" stroke-linecap="round" stroke-linejoin="round" stroke-width="0.05"/>
    </g>
    <radialGradient cx="0" cy="0" gradientTransform="matrix(0.0078, 0.0, 0.0, 0.0078, -0.55, -2.0)" gradientUnits="userSpaceOnUse" id="gradient2" r="819.2" spreadMethod="pad">
      <stop offset="0.3215686274509804" stop-color="#ffffff"/>
      <stop offset="1.0" stop-color="#bed0e0"/>
    </radialGradient>
  </defs>
</svg>
